<svg xmlns="http://www.w3.org/2000/svg" viewBox="0 0 1000 470" width="1000" height="470" font-family="Helvetica, Arial, 'Noto Sans KR', sans-serif">
  <rect width="1000" height="470" fill="#ffffff"/>

  <defs>
    <marker id="a4" markerWidth="8" markerHeight="8" refX="7.2" refY="3" orient="auto" markerUnits="strokeWidth">
      <path d="M0,0 L7.2,3 L0,6 z" fill="#333333"/>
    </marker>
  </defs>

  <text x="40" y="34" font-size="15" font-weight="600" fill="#111111">Figure. Δ-게이팅 — 마스크를 이산화 파라미터에 곱하면 연산 스킵이 곧 상태 보존이 된다</text>

  <!-- ===== connectors first ===== -->
  <g stroke="#333333" stroke-width="1.4" fill="none">
    <path d="M140,110 H172 V156" marker-end="url(#a4)"/>
    <path d="M140,210 H172 V164" marker-end="url(#a4)"/>
    <path d="M172,160 H206" marker-end="url(#a4)"/>
    <path d="M330,160 H366" marker-end="url(#a4)"/>
    <path d="M490,160 H526" marker-end="url(#a4)"/>
    <path d="M690,160 H720 V96 H741" marker-end="url(#a4)"/>
    <path d="M720,160 V266 H741" marker-end="url(#a4)"/>
  </g>
  <circle cx="172" cy="160" r="2.6" fill="#333333"/>
  <circle cx="720" cy="160" r="2.6" fill="#333333"/>

  <!-- ===== frames ===== -->
  <text x="90" y="66" font-size="11" fill="#555555" text-anchor="middle">프레임 t−1</text>
  <rect x="40" y="74" width="100" height="72" fill="#fafafa" stroke="#888888" stroke-width="1.1"/>
  <g stroke="#e0e0e0" stroke-width="0.8" fill="none">
    <line x1="65" y1="74" x2="65" y2="146"/><line x1="90" y1="74" x2="90" y2="146"/><line x1="115" y1="74" x2="115" y2="146"/>
    <line x1="40" y1="98" x2="140" y2="98"/><line x1="40" y1="122" x2="140" y2="122"/>
  </g>
  <circle cx="78" cy="110" r="11" fill="#f7cbb0" stroke="#c0670c" stroke-width="1.1"/>

  <text x="90" y="166" font-size="11" fill="#555555" text-anchor="middle">프레임 t</text>
  <rect x="40" y="174" width="100" height="72" fill="#fafafa" stroke="#888888" stroke-width="1.1"/>
  <g stroke="#e0e0e0" stroke-width="0.8" fill="none">
    <line x1="65" y1="174" x2="65" y2="246"/><line x1="90" y1="174" x2="90" y2="246"/><line x1="115" y1="174" x2="115" y2="246"/>
    <line x1="40" y1="198" x2="140" y2="198"/><line x1="40" y1="222" x2="140" y2="222"/>
  </g>
  <circle cx="102" cy="210" r="11" fill="#c0670c" stroke="#8a4a08" stroke-width="1.1"/>
  <text x="90" y="264" font-size="10" fill="#777777" text-anchor="middle">배경 고정, 물체만 이동</text>

  <!-- ===== detector ===== -->
  <rect x="206" y="128" width="124" height="64" rx="2" fill="#eaf1f8" stroke="#0f5c96" stroke-width="1.2"/>
  <text x="268" y="154" font-size="11.5" font-weight="600" fill="#0b3f68" text-anchor="middle">변화 감지</text>
  <text x="268" y="172" font-size="10" fill="#0b3f68" text-anchor="middle">패치 단위 비교</text>

  <!-- ===== mask ===== -->
  <text x="428" y="108" font-size="11" font-weight="600" fill="#0b3f68" text-anchor="middle">이진 마스크 M</text>
  <g stroke="#8fb4d2" stroke-width="1" fill="#ffffff">
    <rect x="368" y="118" width="30" height="28"/><rect x="398" y="118" width="30" height="28"/>
    <rect x="428" y="118" width="30" height="28"/><rect x="458" y="118" width="30" height="28"/>
    <rect x="368" y="146" width="30" height="28"/><rect x="398" y="146" width="30" height="28" fill="#0f5c96"/>
    <rect x="428" y="146" width="30" height="28" fill="#0f5c96"/><rect x="458" y="146" width="30" height="28"/>
    <rect x="368" y="174" width="30" height="28"/><rect x="398" y="174" width="30" height="28"/>
    <rect x="428" y="174" width="30" height="28"/><rect x="458" y="174" width="30" height="28"/>
  </g>
  <g font-size="11" text-anchor="middle">
    <text x="383" y="137" fill="#aaaaaa">0</text><text x="413" y="137" fill="#aaaaaa">0</text>
    <text x="443" y="137" fill="#aaaaaa">0</text><text x="473" y="137" fill="#aaaaaa">0</text>
    <text x="383" y="165" fill="#aaaaaa">0</text><text x="413" y="165" fill="#ffffff" font-weight="600">1</text>
    <text x="443" y="165" fill="#ffffff" font-weight="600">1</text><text x="473" y="165" fill="#aaaaaa">0</text>
    <text x="383" y="193" fill="#aaaaaa">0</text><text x="413" y="193" fill="#aaaaaa">0</text>
    <text x="443" y="193" fill="#aaaaaa">0</text><text x="473" y="193" fill="#aaaaaa">0</text>
  </g>
  <text x="428" y="220" font-size="10" fill="#777777" text-anchor="middle">변한 패치만 1</text>

  <!-- ===== gating ===== -->
  <rect x="526" y="124" width="164" height="72" rx="2" fill="#eaf4f0" stroke="#00705a" stroke-width="1.4"/>
  <text x="608" y="148" font-size="11.5" font-weight="600" fill="#004a3c" text-anchor="middle">Δ-게이팅</text>
  <text x="608" y="175" font-size="17" font-style="italic" fill="#004a3c" text-anchor="middle">Δ̃ = M · Δ</text>
  <text x="608" y="216" font-size="10" fill="#555555" text-anchor="middle">기존 모델이 이미 갖고 있던</text>
  <text x="608" y="230" font-size="10" fill="#555555" text-anchor="middle">이산화 파라미터에 곱하기만 한다</text>

  <!-- ===== active branch ===== -->
  <rect x="741" y="60" width="234" height="72" rx="2" fill="#f7f7f7" stroke="#555555" stroke-width="1.2"/>
  <text x="753" y="80" font-size="11" font-weight="600" fill="#333333">M = 1 · 변한 패치</text>
  <text x="753" y="99" font-size="11" fill="#444444">Ā = exp(ΔA), B̄ ≠ 0</text>
  <text x="753" y="118" font-size="11.5" font-weight="600" fill="#111111">h(t) = Ā h(t−1) + B̄ x(t)</text>
  <text x="753" y="150" font-size="10" fill="#555555">표준 갱신 — 새 정보를 상태에 기입</text>
  <text x="753" y="164" font-size="10" fill="#555555">연산 수행</text>

  <!-- ===== static branch ===== -->
  <rect x="741" y="230" width="234" height="72" rx="2" fill="#eaf4f0" stroke="#00705a" stroke-width="1.4"/>
  <text x="753" y="250" font-size="11" font-weight="600" fill="#004a3c">M = 0 · 정적 패치</text>
  <text x="753" y="269" font-size="11" fill="#004a3c">Ā = exp(0·A) = I, B̄ = 0</text>
  <text x="753" y="290" font-size="12.5" font-weight="600" fill="#004a3c">h(t) = h(t−1)</text>
  <text x="753" y="320" font-size="10" font-weight="600" fill="#004a3c">상태가 정확히 복사됨 — 근사 아님</text>
  <text x="753" y="334" font-size="10" fill="#00705a">연산 자체를 우회</text>

  <!-- ===== bottom note ===== -->
  <line x1="40" y1="374" x2="960" y2="374" stroke="#cccccc" stroke-width="1"/>
  <text x="40" y="398" font-size="11.5" font-weight="600" fill="#111111">핵심: 건너뛰었으므로 상태를 유지하는 것이 아니라, 건너뛴 결과가 상태 유지와 수식적으로 동일하다</text>
  <text x="40" y="420" font-size="10.5" fill="#555555">조기 종료·토큰 제거 등 일반적인 조건부 연산은 건너뛴 부분을 0 또는 근사값으로 대체하며, 그 오차가 프레임을 넘어 누적된다.</text>
  <text x="40" y="437" font-size="10.5" fill="#555555">Δ-게이팅은 이산화 수식의 극한값 그 자체이므로 연속으로 여러 프레임을 건너뛰어도 상태 오염이 발생하지 않는다.</text>
</svg>
