<svg xmlns="http://www.w3.org/2000/svg" viewBox="0 0 900 390" width="900" height="390" font-family="Arial, Helvetica, sans-serif">
<rect width="900" height="390" fill="#ffffff"/>
<line x1="78" y1="268.2" x2="428" y2="268.2" stroke="#e8e8e8" stroke-width="0.8"/>
<line x1="78" y1="212.7" x2="428" y2="212.7" stroke="#e8e8e8" stroke-width="0.8"/>
<line x1="78" y1="157.1" x2="428" y2="157.1" stroke="#e8e8e8" stroke-width="0.8"/>
<line x1="78" y1="101.6" x2="428" y2="101.6" stroke="#e8e8e8" stroke-width="0.8"/>
<line x1="78" y1="46.0" x2="428" y2="46.0" stroke="#e8e8e8" stroke-width="0.8"/>
<line x1="78" y1="296" x2="428" y2="296" stroke="#333333" stroke-width="1"/>
<line x1="78" y1="46" x2="78" y2="296" stroke="#333333" stroke-width="1"/>
<line x1="78.0" y1="296" x2="78.0" y2="300" stroke="#333333" stroke-width="1"/>
<text x="78.0" y="313.0" font-size="11" fill="#666666" text-anchor="middle" font-weight="normal" font-style="normal">0</text>
<line x1="165.5" y1="296" x2="165.5" y2="300" stroke="#333333" stroke-width="1"/>
<text x="165.5" y="313.0" font-size="11" fill="#666666" text-anchor="middle" font-weight="normal" font-style="normal">8</text>
<line x1="253.0" y1="296" x2="253.0" y2="300" stroke="#333333" stroke-width="1"/>
<text x="253.0" y="313.0" font-size="11" fill="#666666" text-anchor="middle" font-weight="normal" font-style="normal">16</text>
<line x1="340.5" y1="296" x2="340.5" y2="300" stroke="#333333" stroke-width="1"/>
<text x="340.5" y="313.0" font-size="11" fill="#666666" text-anchor="middle" font-weight="normal" font-style="normal">24</text>
<line x1="417.1" y1="296" x2="417.1" y2="300" stroke="#333333" stroke-width="1"/>
<text x="417.1" y="313.0" font-size="11" fill="#666666" text-anchor="middle" font-weight="normal" font-style="normal">31</text>
<line x1="74" y1="268.2" x2="78" y2="268.2" stroke="#333333" stroke-width="1"/>
<text x="70.0" y="272.2" font-size="11" fill="#666666" text-anchor="end" font-weight="normal" font-style="normal">0.12</text>
<line x1="74" y1="212.7" x2="78" y2="212.7" stroke="#333333" stroke-width="1"/>
<text x="70.0" y="216.7" font-size="11" fill="#666666" text-anchor="end" font-weight="normal" font-style="normal">0.16</text>
<line x1="74" y1="157.1" x2="78" y2="157.1" stroke="#333333" stroke-width="1"/>
<text x="70.0" y="161.1" font-size="11" fill="#666666" text-anchor="end" font-weight="normal" font-style="normal">0.20</text>
<line x1="74" y1="101.6" x2="78" y2="101.6" stroke="#333333" stroke-width="1"/>
<text x="70.0" y="105.6" font-size="11" fill="#666666" text-anchor="end" font-weight="normal" font-style="normal">0.24</text>
<line x1="74" y1="46.0" x2="78" y2="46.0" stroke="#333333" stroke-width="1"/>
<text x="70.0" y="50.0" font-size="11" fill="#666666" text-anchor="end" font-weight="normal" font-style="normal">0.28</text>
<text x="253.0" y="332.0" font-size="12" fill="#1a1a1a" text-anchor="middle" font-weight="normal" font-style="normal">Frame index within clip</text>
<text x="32.0" y="171.0" font-size="12" fill="#1a1a1a" text-anchor="middle" font-weight="normal" font-style="normal" transform="rotate(-90 32 171.0)">AbsRel</text>
<text x="78.0" y="34.0" font-size="12.5" fill="#1a1a1a" text-anchor="start" font-weight="bold" font-style="normal">(a) Accuracy decays between keyframes</text>
<line x1="406.1" y1="46" x2="406.1" y2="296" stroke="#b8442c" stroke-width="1.1" stroke-dasharray="4 3"/>
<text x="402.1" y="58.0" font-size="10.5" fill="#b8442c" text-anchor="end" font-weight="normal" font-style="normal">keyframe</text>
<polyline points="78.0,206.8 121.8,200.2 165.5,185.6 209.2,166.3 253.0,131.4 296.8,113.8 340.5,97.3 384.2,68.8 417.1,155.6" fill="none" stroke="#b8442c" stroke-width="1.8"/>
<circle cx="78.0" cy="206.8" r="3.2" fill="#b8442c" stroke="#b8442c" stroke-width="1.4"/>
<circle cx="121.8" cy="200.2" r="3.2" fill="#b8442c" stroke="#b8442c" stroke-width="1.4"/>
<circle cx="165.5" cy="185.6" r="3.2" fill="#b8442c" stroke="#b8442c" stroke-width="1.4"/>
<circle cx="209.2" cy="166.3" r="3.2" fill="#b8442c" stroke="#b8442c" stroke-width="1.4"/>
<circle cx="253.0" cy="131.4" r="3.2" fill="#b8442c" stroke="#b8442c" stroke-width="1.4"/>
<circle cx="296.8" cy="113.8" r="3.2" fill="#b8442c" stroke="#b8442c" stroke-width="1.4"/>
<circle cx="340.5" cy="97.3" r="3.2" fill="#b8442c" stroke="#b8442c" stroke-width="1.4"/>
<circle cx="384.2" cy="68.8" r="3.2" fill="#b8442c" stroke="#b8442c" stroke-width="1.4"/>
<circle cx="417.1" cy="155.6" r="3.2" fill="#b8442c" stroke="#b8442c" stroke-width="1.4"/>
<polyline points="78.0,247.0 121.8,267.4 165.5,261.4 209.2,225.2 253.0,223.6 296.8,238.4 340.5,214.8 384.2,199.2 417.1,251.1" fill="none" stroke="#1f4e79" stroke-width="1.8"/>
<circle cx="78.0" cy="247.0" r="3.2" fill="#1f4e79" stroke="#1f4e79" stroke-width="1.4"/>
<circle cx="121.8" cy="267.4" r="3.2" fill="#1f4e79" stroke="#1f4e79" stroke-width="1.4"/>
<circle cx="165.5" cy="261.4" r="3.2" fill="#1f4e79" stroke="#1f4e79" stroke-width="1.4"/>
<circle cx="209.2" cy="225.2" r="3.2" fill="#1f4e79" stroke="#1f4e79" stroke-width="1.4"/>
<circle cx="253.0" cy="223.6" r="3.2" fill="#1f4e79" stroke="#1f4e79" stroke-width="1.4"/>
<circle cx="296.8" cy="238.4" r="3.2" fill="#1f4e79" stroke="#1f4e79" stroke-width="1.4"/>
<circle cx="340.5" cy="214.8" r="3.2" fill="#1f4e79" stroke="#1f4e79" stroke-width="1.4"/>
<circle cx="384.2" cy="199.2" r="3.2" fill="#1f4e79" stroke="#1f4e79" stroke-width="1.4"/>
<circle cx="417.1" cy="251.1" r="3.2" fill="#1f4e79" stroke="#1f4e79" stroke-width="1.4"/>
<line x1="96" y1="66" x2="118" y2="66" stroke="#b8442c" stroke-width="1.8"/>
<circle cx="107" cy="66" r="3.2" fill="#b8442c"/>
<text x="124.0" y="70.0" font-size="11" fill="#1a1a1a" text-anchor="start" font-weight="normal" font-style="normal">Bonn (dynamic objects)</text>
<line x1="96" y1="82" x2="118" y2="82" stroke="#1f4e79" stroke-width="1.8"/>
<circle cx="107" cy="82" r="3.2" fill="#1f4e79"/>
<text x="124.0" y="86.0" font-size="11" fill="#1a1a1a" text-anchor="start" font-weight="normal" font-style="normal">TUM (static camera)</text>
<line x1="538" y1="296.0" x2="838" y2="296.0" stroke="#e8e8e8" stroke-width="0.8"/>
<line x1="538" y1="233.5" x2="838" y2="233.5" stroke="#e8e8e8" stroke-width="0.8"/>
<line x1="538" y1="171.0" x2="838" y2="171.0" stroke="#e8e8e8" stroke-width="0.8"/>
<line x1="538" y1="108.5" x2="838" y2="108.5" stroke="#e8e8e8" stroke-width="0.8"/>
<line x1="538" y1="296" x2="838" y2="296" stroke="#333333" stroke-width="1"/>
<line x1="538" y1="46" x2="538" y2="296" stroke="#333333" stroke-width="1"/>
<line x1="561.1" y1="296" x2="561.1" y2="300" stroke="#333333" stroke-width="1"/>
<text x="561.1" y="313.0" font-size="11" fill="#666666" text-anchor="middle" font-weight="normal" font-style="normal">5</text>
<line x1="607.2" y1="296" x2="607.2" y2="300" stroke="#333333" stroke-width="1"/>
<text x="607.2" y="313.0" font-size="11" fill="#666666" text-anchor="middle" font-weight="normal" font-style="normal">15</text>
<line x1="676.5" y1="296" x2="676.5" y2="300" stroke="#333333" stroke-width="1"/>
<text x="676.5" y="313.0" font-size="11" fill="#666666" text-anchor="middle" font-weight="normal" font-style="normal">30</text>
<line x1="745.7" y1="296" x2="745.7" y2="300" stroke="#333333" stroke-width="1"/>
<text x="745.7" y="313.0" font-size="11" fill="#666666" text-anchor="middle" font-weight="normal" font-style="normal">45</text>
<line x1="814.9" y1="296" x2="814.9" y2="300" stroke="#333333" stroke-width="1"/>
<text x="814.9" y="313.0" font-size="11" fill="#666666" text-anchor="middle" font-weight="normal" font-style="normal">60</text>
<line x1="534" y1="296.0" x2="538" y2="296.0" stroke="#333333" stroke-width="1"/>
<text x="530.0" y="300.0" font-size="11" fill="#666666" text-anchor="end" font-weight="normal" font-style="normal">0.15</text>
<line x1="534" y1="233.5" x2="538" y2="233.5" stroke="#333333" stroke-width="1"/>
<text x="530.0" y="237.5" font-size="11" fill="#666666" text-anchor="end" font-weight="normal" font-style="normal">0.16</text>
<line x1="534" y1="171.0" x2="538" y2="171.0" stroke="#333333" stroke-width="1"/>
<text x="530.0" y="175.0" font-size="11" fill="#666666" text-anchor="end" font-weight="normal" font-style="normal">0.17</text>
<line x1="534" y1="108.5" x2="538" y2="108.5" stroke="#333333" stroke-width="1"/>
<text x="530.0" y="112.5" font-size="11" fill="#666666" text-anchor="end" font-weight="normal" font-style="normal">0.18</text>
<text x="688.0" y="332.0" font-size="12" fill="#1a1a1a" text-anchor="middle" font-weight="normal" font-style="normal">Keyframe refresh period (frames)</text>
<text x="492.0" y="171.0" font-size="12" fill="#1a1a1a" text-anchor="middle" font-weight="normal" font-style="normal" transform="rotate(-90 492 171.0)">AbsRel</text>
<text x="538.0" y="34.0" font-size="12.5" fill="#1a1a1a" text-anchor="start" font-weight="bold" font-style="normal">(b) Refreshing more often trades against stability</text>
<polyline points="561.1,264.1 584.2,232.9 607.2,203.5 676.5,124.8 814.9,104.1" fill="none" stroke="#1f4e79" stroke-width="1.8"/>
<circle cx="561.1" cy="264.1" r="3.2" fill="#1f4e79" stroke="#1f4e79" stroke-width="1.4"/>
<circle cx="584.2" cy="232.9" r="3.2" fill="#1f4e79" stroke="#1f4e79" stroke-width="1.4"/>
<circle cx="607.2" cy="203.5" r="3.2" fill="#1f4e79" stroke="#1f4e79" stroke-width="1.4"/>
<circle cx="676.5" cy="124.8" r="3.2" fill="#1f4e79" stroke="#1f4e79" stroke-width="1.4"/>
<circle cx="814.9" cy="104.1" r="3.2" fill="#1f4e79" stroke="#1f4e79" stroke-width="1.4"/>
<line x1="838" y1="46" x2="838" y2="296" stroke="#2e8b7a" stroke-width="1"/>
<line x1="838" y1="254.3" x2="842" y2="254.3" stroke="#2e8b7a" stroke-width="1"/>
<text x="846.0" y="258.3" font-size="11" fill="#2e8b7a" text-anchor="start" font-weight="normal" font-style="normal">0.07</text>
<line x1="838" y1="212.7" x2="842" y2="212.7" stroke="#2e8b7a" stroke-width="1"/>
<text x="846.0" y="216.7" font-size="11" fill="#2e8b7a" text-anchor="start" font-weight="normal" font-style="normal">0.08</text>
<line x1="838" y1="171.0" x2="842" y2="171.0" stroke="#2e8b7a" stroke-width="1"/>
<text x="846.0" y="175.0" font-size="11" fill="#2e8b7a" text-anchor="start" font-weight="normal" font-style="normal">0.09</text>
<line x1="838" y1="129.3" x2="842" y2="129.3" stroke="#2e8b7a" stroke-width="1"/>
<text x="846.0" y="133.3" font-size="11" fill="#2e8b7a" text-anchor="start" font-weight="normal" font-style="normal">0.10</text>
<line x1="838" y1="87.7" x2="842" y2="87.7" stroke="#2e8b7a" stroke-width="1"/>
<text x="846.0" y="91.7" font-size="11" fill="#2e8b7a" text-anchor="start" font-weight="normal" font-style="normal">0.11</text>
<text x="884.0" y="171.0" font-size="12" fill="#2e8b7a" text-anchor="middle" font-weight="normal" font-style="normal" transform="rotate(90 884 171.0)">t-delta</text>
<polyline points="561.1,94.3 584.2,165.2 607.2,179.7 676.5,207.2 814.9,255.6" fill="none" stroke="#2e8b7a" stroke-width="1.8" stroke-dasharray="5 4"/>
<circle cx="561.1" cy="94.3" r="3.2" fill="#ffffff" stroke="#2e8b7a" stroke-width="1.4"/>
<circle cx="584.2" cy="165.2" r="3.2" fill="#ffffff" stroke="#2e8b7a" stroke-width="1.4"/>
<circle cx="607.2" cy="179.7" r="3.2" fill="#ffffff" stroke="#2e8b7a" stroke-width="1.4"/>
<circle cx="676.5" cy="207.2" r="3.2" fill="#ffffff" stroke="#2e8b7a" stroke-width="1.4"/>
<circle cx="814.9" cy="255.6" r="3.2" fill="#ffffff" stroke="#2e8b7a" stroke-width="1.4"/>
<line x1="560" y1="262" x2="582" y2="262" stroke="#1f4e79" stroke-width="1.8"/>
<circle cx="571" cy="262" r="3.2" fill="#1f4e79"/>
<text x="588.0" y="266.0" font-size="11" fill="#1a1a1a" text-anchor="start" font-weight="normal" font-style="normal">AbsRel</text>
<line x1="670" y1="262" x2="692" y2="262" stroke="#2e8b7a" stroke-width="1.8" stroke-dasharray="5 4"/>
<text x="698.0" y="266.0" font-size="11" fill="#1a1a1a" text-anchor="start" font-weight="normal" font-style="normal">t-delta</text>
<text x="78.0" y="348.0" font-size="11" fill="#666666" text-anchor="start" font-weight="normal" font-style="normal">Carried state does not accumulate accuracy: Bonn degrades 61% from frame 0 to frame 28 and recovers only when the keyframe fires at frame</text>
<text x="78.0" y="364.0" font-size="11" fill="#666666" text-anchor="start" font-weight="normal" font-style="normal">30. Panel (b) shows the remedy is already in the architecture and merely applied too rarely, but that a period below 10 forfeits the</text>
<text x="78.0" y="380.0" font-size="11" fill="#666666" text-anchor="start" font-weight="normal" font-style="normal">stability lead the model is built for.</text>
</svg>
