<svg xmlns="http://www.w3.org/2000/svg" width="1400" height="475" viewBox="0 45 1400 475"><rect x="0" y="0" width="1400" height="530" rx="0" fill="#ffffff" stroke="none"/><rect x="25" y="115" width="155" height="125" rx="12" fill="#f4f7fa" stroke="#d5dfe8"/><rect x="51" y="134" width="45" height="37" rx="4" fill="#ccd9e5" stroke="#ffffff"/><rect x="60" y="141" width="45" height="37" rx="4" fill="#a5bdcf" stroke="#ffffff"/><rect x="69" y="148" width="45" height="37" rx="4" fill="#779bb6" stroke="#ffffff"/><text font-family="Helvetica" x="102" y="203" fill="#22354d" font-size="20" text-anchor="middle" font-weight="700">RGB frame</text><text font-family="Helvetica" x="102" y="225" fill="#526477" font-size="16" text-anchor="middle" font-weight="400">256 × 256</text><rect x="230" y="115" width="195" height="125" rx="12" fill="#f4f7fa" stroke="#d5dfe8"/><text font-family="Helvetica" x="327" y="152" fill="#22354d" font-size="20" text-anchor="middle" font-weight="700">Patch embedding</text><text font-family="Helvetica" x="327" y="183" fill="#526477" font-size="17" text-anchor="middle" font-weight="400">16 × 16 patches</text><text font-family="Helvetica" x="327" y="211" fill="#526477" font-size="17" text-anchor="middle" font-weight="400">192-d tokens</text><rect x="480" y="70" width="500" height="205" rx="12" fill="#f8fafc" stroke="#d5dfe8"/><text font-family="Helvetica" x="505" y="101" fill="#22354d" font-size="20" text-anchor="start" font-weight="700">Alternating state-space blocks</text><rect x="505" y="125" width="90" height="91" rx="12" fill="#e4f3f2" stroke="#d5dfe8"/><text font-family="Helvetica" x="550" y="163" fill="#087f8c" font-size="27" text-anchor="middle" font-weight="700">T₁</text><text font-family="Helvetica" x="550" y="194" fill="#087f8c" font-size="15" text-anchor="middle" font-weight="400">Temporal</text><rect x="625" y="125" width="90" height="91" rx="12" fill="#edf0f8" stroke="#d5dfe8"/><text font-family="Helvetica" x="670" y="163" fill="#626c9c" font-size="27" text-anchor="middle" font-weight="700">S₁</text><text font-family="Helvetica" x="670" y="194" fill="#626c9c" font-size="15" text-anchor="middle" font-weight="400">Spatial</text><rect x="745" y="125" width="90" height="91" rx="12" fill="#e4f3f2" stroke="#d5dfe8"/><text font-family="Helvetica" x="790" y="163" fill="#087f8c" font-size="27" text-anchor="middle" font-weight="700">T₂</text><text font-family="Helvetica" x="790" y="194" fill="#087f8c" font-size="15" text-anchor="middle" font-weight="400">Temporal</text><rect x="865" y="125" width="90" height="91" rx="12" fill="#edf0f8" stroke="#d5dfe8"/><text font-family="Helvetica" x="910" y="163" fill="#626c9c" font-size="27" text-anchor="middle" font-weight="700">S₂</text><text font-family="Helvetica" x="910" y="194" fill="#626c9c" font-size="15" text-anchor="middle" font-weight="400">Spatial</text><path d="M180,177 L230,177" fill="none" stroke="#22354d" stroke-width="2.2" stroke-linejoin="round"/><path d="M230,177 L221.0,173.0 L221.0,181.0 Z" fill="#22354d"/><path d="M425,177 L480,177" fill="none" stroke="#22354d" stroke-width="2.2" stroke-linejoin="round"/><path d="M480,177 L471.0,173.0 L471.0,181.0 Z" fill="#22354d"/><path d="M595,177 L625,177" fill="none" stroke="#22354d" stroke-width="2.2" stroke-linejoin="round"/><path d="M625,177 L616.0,173.0 L616.0,181.0 Z" fill="#22354d"/><path d="M715,177 L745,177" fill="none" stroke="#22354d" stroke-width="2.2" stroke-linejoin="round"/><path d="M745,177 L736.0,173.0 L736.0,181.0 Z" fill="#22354d"/><path d="M835,177 L865,177" fill="none" stroke="#22354d" stroke-width="2.2" stroke-linejoin="round"/><path d="M865,177 L856.0,173.0 L856.0,181.0 Z" fill="#22354d"/><path d="M980,177 L1030,177" fill="none" stroke="#22354d" stroke-width="2.2" stroke-linejoin="round"/><path d="M1030,177 L1021.0,173.0 L1021.0,181.0 Z" fill="#22354d"/><path d="M1235,177 L1280,177" fill="none" stroke="#22354d" stroke-width="2.2" stroke-linejoin="round"/><path d="M1280,177 L1271.0,173.0 L1271.0,181.0 Z" fill="#22354d"/><text font-family="Helvetica" x="730" y="249" fill="#526477" font-size="16" text-anchor="middle" font-weight="400">Selected updates · retained temporal memory</text><rect x="1030" y="115" width="205" height="125" rx="12" fill="#f4f7fa" stroke="#d5dfe8"/><text font-family="Helvetica" x="1132" y="152" fill="#22354d" font-size="20" text-anchor="middle" font-weight="700">Dense decoder</text><text font-family="Helvetica" x="1132" y="183" fill="#526477" font-size="17" text-anchor="middle" font-weight="400">DPT-style · 64 bins</text><text font-family="Helvetica" x="1132" y="211" fill="#526477" font-size="16" text-anchor="middle" font-weight="400">All pixels, every frame</text><rect x="1285" y="140" width="19" height="65" rx="0" fill="#dcecf0" stroke="none"/><rect x="1304" y="140" width="19" height="65" rx="0" fill="#a8d3da" stroke="none"/><rect x="1323" y="140" width="19" height="65" rx="0" fill="#6aafbe" stroke="none"/><rect x="1342" y="140" width="19" height="65" rx="0" fill="#31869d" stroke="none"/><text font-family="Helvetica" x="1323" y="231" fill="#22354d" font-size="19" text-anchor="middle" font-weight="700">Depth</text><rect x="25" y="355" width="400" height="145" rx="12" fill="#eef8f7" stroke="#b9dcd7"/><text font-family="Helvetica" x="48" y="387" fill="#087f8c" font-size="21" text-anchor="start" font-weight="700">Change detector + refresh</text><text font-family="Helvetica" x="48" y="417" fill="#22354d" font-size="18" text-anchor="start" font-weight="400">Patch MSE → hysteresis → dilation</text><text font-family="Helvetica" x="48" y="446" fill="#526477" font-size="17" text-anchor="start" font-weight="400">Periodic keyframe / high-activity fallback</text><text font-family="Helvetica" x="48" y="477" fill="#087f8c" font-size="18" text-anchor="start" font-weight="700">Output: active patch mask</text><path d="M102,240 L102,355" fill="none" stroke="#087f8c" stroke-width="2.2" stroke-linejoin="round"/><path d="M102,355 L106.0,346.0 L98.0,346.0 Z" fill="#087f8c"/><text font-family="Helvetica" x="115" y="298" fill="#526477" font-size="16" text-anchor="start" font-weight="400">Previous frame +</text><text font-family="Helvetica" x="115" y="320" fill="#526477" font-size="16" text-anchor="start" font-weight="400">detector history</text><path d="M425.0,427.0 L432.0,427.0" stroke="#087f8c" stroke-width="2.2" fill="none"/><path d="M438.0,427.0 L445.0,427.0" stroke="#087f8c" stroke-width="2.2" fill="none"/><path d="M450.0,427.0 L450.0,420.0" stroke="#087f8c" stroke-width="2.2" fill="none"/><path d="M450.0,414.0 L450.0,407.0" stroke="#087f8c" stroke-width="2.2" fill="none"/><path d="M450.0,401.0 L450.0,394.0" stroke="#087f8c" stroke-width="2.2" fill="none"/><path d="M450.0,388.0 L450.0,381.0" stroke="#087f8c" stroke-width="2.2" fill="none"/><path d="M450.0,375.0 L450.0,368.0" stroke="#087f8c" stroke-width="2.2" fill="none"/><path d="M450.0,362.0 L450.0,355.0" stroke="#087f8c" stroke-width="2.2" fill="none"/><path d="M450.0,349.0 L450.0,342.0" stroke="#087f8c" stroke-width="2.2" fill="none"/><path d="M450.0,336.0 L450.0,329.0" stroke="#087f8c" stroke-width="2.2" fill="none"/><path d="M450.0,323.0 L450.0,316.0" stroke="#087f8c" stroke-width="2.2" fill="none"/><path d="M450.0,310.0 L450.0,303.0" stroke="#087f8c" stroke-width="2.2" fill="none"/><path d="M450.0,297.0 L450.0,295.0" stroke="#087f8c" stroke-width="2.2" fill="none"/><path d="M450.0,295.0 L457.0,295.0" stroke="#087f8c" stroke-width="2.2" fill="none"/><path d="M463.0,295.0 L470.0,295.0" stroke="#087f8c" stroke-width="2.2" fill="none"/><path d="M476.0,295.0 L483.0,295.0" stroke="#087f8c" stroke-width="2.2" fill="none"/><path d="M489.0,295.0 L490.0,295.0" stroke="#087f8c" stroke-width="2.2" fill="none"/><path d="M490.0,295.0 L490.0,288.0" stroke="#087f8c" stroke-width="2.2" fill="none"/><path d="M490.0,282.0 L490.0,275.0" stroke="#087f8c" stroke-width="2.2" fill="none"/><path d="M490,275 L486.0,284.0 L494.0,284.0 Z" fill="#087f8c"/><rect x="505" y="355" width="210" height="145" rx="12" fill="#e4f3f2" stroke="#b9dcd7"/><text font-family="Helvetica" x="610" y="389" fill="#087f8c" font-size="20" text-anchor="middle" font-weight="700">Temporal states</text><text font-family="Helvetica" x="610" y="422" fill="#22354d" font-size="18" text-anchor="middle" font-weight="400">Active: update</text><text font-family="Helvetica" x="610" y="451" fill="#22354d" font-size="18" text-anchor="middle" font-weight="400">Inactive: copy</text><text font-family="Helvetica" x="610" y="479" fill="#087f8c" font-size="15" text-anchor="middle" font-weight="400">Exact state retention</text><rect x="755" y="355" width="225" height="145" rx="12" fill="#fff4e9" stroke="#e8cbae"/><text font-family="Helvetica" x="867" y="389" fill="#ad6525" font-size="20" text-anchor="middle" font-weight="700">T / S output caches</text><text font-family="Helvetica" x="867" y="422" fill="#22354d" font-size="18" text-anchor="middle" font-weight="400">Active: recompute</text><text font-family="Helvetica" x="867" y="451" fill="#22354d" font-size="18" text-anchor="middle" font-weight="400">Inactive: reuse</text><text font-family="Helvetica" x="867" y="479" fill="#ad6525" font-size="15" text-anchor="middle" font-weight="400">Approximate readout</text><path d="M610,275 L610,355" fill="none" stroke="#087f8c" stroke-width="2.2" stroke-linejoin="round"/><path d="M610,355 L614.0,346.0 L606.0,346.0 Z" fill="#087f8c"/><path d="M610,275 L606.0,284.0 L614.0,284.0 Z" fill="#087f8c"/><path d="M867,275 L867,355" fill="none" stroke="#ad6525" stroke-width="2.2" stroke-linejoin="round"/><path d="M867,355 L871.0,346.0 L863.0,346.0 Z" fill="#ad6525"/><path d="M867,275 L863.0,284.0 L871.0,284.0 Z" fill="#ad6525"/><text font-family="Helvetica" x="738" y="328" fill="#526477" font-size="16" text-anchor="middle" font-weight="400">Read / write across frames</text><path d="M1040,377 L1090,377" fill="none" stroke="#22354d" stroke-width="2.2" stroke-linejoin="round"/><path d="M1090,377 L1081.0,373.0 L1081.0,381.0 Z" fill="#22354d"/><text font-family="Helvetica" x="1103" y="383" fill="#22354d" font-size="17" text-anchor="start" font-weight="400">Feature flow</text><path d="M1040.0,422.0 L1047.0,422.0" stroke="#087f8c" stroke-width="2.2" fill="none"/><path d="M1053.0,422.0 L1060.0,422.0" stroke="#087f8c" stroke-width="2.2" fill="none"/><path d="M1066.0,422.0 L1073.0,422.0" stroke="#087f8c" stroke-width="2.2" fill="none"/><path d="M1079.0,422.0 L1086.0,422.0" stroke="#087f8c" stroke-width="2.2" fill="none"/><path d="M1090,422 L1081.0,418.0 L1081.0,426.0 Z" fill="#087f8c"/><text font-family="Helvetica" x="1103" y="428" fill="#087f8c" font-size="17" text-anchor="start" font-weight="400">Activation control</text><path d="M1040,467 L1090,467" fill="none" stroke="#ad6525" stroke-width="2.2" stroke-linejoin="round"/><path d="M1090,467 L1081.0,463.0 L1081.0,471.0 Z" fill="#ad6525"/><path d="M1040,467 L1049.0,471.0 L1049.0,463.0 Z" fill="#ad6525"/><text font-family="Helvetica" x="1103" y="473" fill="#ad6525" font-size="17" text-anchor="start" font-weight="400">Persistent storage</text></svg>